<svg width="233" height="108" viewBox="0 0 233 108" fill="none" xmlns="http://www.w3.org/2000/svg">
<g id="Frame 1312318729" clip-path="url(#clip0_6661_24015)">
<path id="Vector" opacity="0.5" d="M449.766 -384.929L245.555 -24.6634C215.302 28.5688 166.352 68.6588 108.206 87.8305C50.0595 107.002 -13.1383 103.89 -69.1295 79.0939C-136.916 48.5234 -200.808 22.7672 -254.75 3.88949C-470.209 -73.527 -693.275 -127.83 -920.196 -158.105C-934.261 -159.968 -947.218 -166.741 -956.775 -177.23C-966.332 -187.72 -971.873 -201.25 -972.425 -215.428C-982.294 -365.447 -1018.85 -512.508 -1080.38 -649.697C-1145.54 -797.842 -1227.64 -937.948 -1325.03 -1067.21C-1333.27 -1078.23 -1338.16 -1091.39 -1339.1 -1105.11C-1340.04 -1118.83 -1337 -1132.54 -1330.35 -1144.57C-1323.69 -1156.61 -1313.71 -1166.47 -1301.59 -1172.96C-1289.46 -1179.46 -1275.72 -1182.31 -1262.01 -1181.18C-1116.41 -1168.26 -969.838 -1171.03 -824.832 -1189.45C-664.64 -1207.81 -509.569 -1257.21 -368.292 -1334.91C-356.251 -1342.08 -342.042 -1344.71 -328.232 -1342.32C-314.422 -1339.93 -301.92 -1332.68 -292.986 -1321.88C-157.412 -1156.73 -6.04941 -1005.2 158.951 -869.462C216.338 -821.758 293.859 -766.202 374.26 -710.241C425.342 -675.358 461.459 -622.55 475.445 -562.294C489.431 -502.038 480.263 -438.733 449.766 -384.929Z" fill="url(#paint0_linear_6661_24015)"/>
</g>
<defs>
<linearGradient id="paint0_linear_6661_24015" x1="148.5" y1="71" x2="86" y2="-11.5" gradientUnits="userSpaceOnUse">
<stop stop-color="#E1EEE9"/>
<stop offset="1" stop-color="white" stop-opacity="0"/>
</linearGradient>
<clipPath id="clip0_6661_24015">
<rect width="233" height="108" fill="white"/>
</clipPath>
</defs>
</svg>
