<svg width="16" height="30" viewBox="0 0 16 30" fill="none" xmlns="http://www.w3.org/2000/svg">
<g id="Group 2036083368">
<path id="Vector 1158" d="M6.86597 1.59742L5.61407 0.27202L5.17861 5.24939L7.47312 6.81799L6.86597 1.59742Z" fill="url(#paint0_linear_6657_22804)"/>
<path id="Vector 1159" d="M10.5131 6.42333L9.71774 4.58233L7.39502 9.56342L9.17662 12.0481L10.5131 6.42333Z" fill="url(#paint1_linear_6657_22804)"/>
<path id="Vector 1160" d="M12.3147 12.7763L12.1851 10.574L7.91023 14.849L8.81703 18.0875L12.3147 12.7763Z" fill="url(#paint2_linear_6657_22804)"/>
<path id="Vector 1161" d="M11.5169 19.8924L12.2116 17.5673L6.18444 20.3778L5.90334 24.0665L11.5169 19.8924Z" fill="url(#paint3_linear_6657_22804)"/>
<path id="Vector 1162" d="M7.98484 26.5301L9.5776 24.3881L2.29023 25.0257L0.611884 28.7328L7.98484 26.5301Z" fill="url(#paint4_linear_6657_22804)"/>
</g>
<defs>
<linearGradient id="paint0_linear_6657_22804" x1="4.90917" y1="1.63148" x2="10.414" y2="2.78706" gradientUnits="userSpaceOnUse">
<stop stop-color="#FDAE31"/>
<stop offset="1" stop-color="#FDBF5D" stop-opacity="0"/>
</linearGradient>
<linearGradient id="paint1_linear_6657_22804" x1="8.47765" y1="5.72235" x2="13.733" y2="8.98786" gradientUnits="userSpaceOnUse">
<stop stop-color="#FDAE31"/>
<stop offset="1" stop-color="#FDBF5D" stop-opacity="0"/>
</linearGradient>
<linearGradient id="paint2_linear_6657_22804" x1="10.4744" y1="11.2859" x2="14.6781" y2="16.6385" gradientUnits="userSpaceOnUse">
<stop stop-color="#FDAE31"/>
<stop offset="1" stop-color="#FDBF5D" stop-opacity="0"/>
</linearGradient>
<linearGradient id="paint3_linear_6657_22804" x1="10.1754" y1="17.6595" x2="12.5069" y2="24.7738" gradientUnits="userSpaceOnUse">
<stop stop-color="#FDAE31"/>
<stop offset="1" stop-color="#FDBF5D" stop-opacity="0"/>
</linearGradient>
<linearGradient id="paint4_linear_6657_22804" x1="7.43823" y1="23.7174" x2="7.1716" y2="31.9483" gradientUnits="userSpaceOnUse">
<stop stop-color="#FDAE31"/>
<stop offset="1" stop-color="#FDBF5D" stop-opacity="0"/>
</linearGradient>
</defs>
</svg>
