<svg width="2560" height="1500" viewBox="0 0 2560 1500" fill="none" xmlns="http://www.w3.org/2000/svg">
<path d="M2539.5 3.16062C2533.33 5.26062 2526.93 5.76062 2520.53 4.76062C2515.2 -3.23938 2511.17 -0.0393753 2507.61 6.16062C2507.5 6.66062 2507.5 7.16062 2507.38 7.56062C2507.38 7.76062 2507.26 8.06062 2507.26 8.26062L2507.14 8.76062V8.86062C2506.67 12.6606 2506.55 13.0606 2504.77 9.96062C2503.23 9.76062 2501.33 10.1606 2499.2 10.6606C2495.64 11.3606 2491.73 12.1606 2488.42 10.5606C2474.79 9.96063 2462.34 8.06062 2448.47 5.86062C2444.56 5.66062 2441.13 5.86062 2437.69 6.06062C2432.95 6.36062 2428.33 6.56062 2423.11 5.86062C2416.12 6.46062 2408.3 6.86062 2400.12 5.86062C2397.04 6.96062 2393.84 6.06062 2390.64 5.16062C2385.66 3.76062 2380.8 2.46062 2377.13 8.46062C2373.33 6.26062 2370.25 8.36062 2367.17 10.3606C2363.85 12.5606 2360.53 14.7606 2356.27 11.8606C2353.19 12.2606 2350.1 11.8606 2347.14 11.4606C2342.99 10.9606 2339.08 10.4606 2335.05 11.9606C2334.34 11.4606 2333.75 10.9606 2333.04 10.4606C2327.94 6.66062 2322.96 2.96062 2319.05 8.86062C2316.09 7.56062 2314.19 8.86062 2312.41 10.1606C2310.52 11.5606 2308.74 12.9606 2305.54 11.0606C2304.47 10.6606 2303.41 11.6606 2302.34 12.5606C2300.68 14.1606 2298.9 15.7606 2296.65 11.6606C2290.13 14.2606 2284.09 16.4606 2276.74 11.5606C2273.42 10.2606 2269.99 10.8606 2267.02 12.4606C2263.47 14.9606 2262.28 13.6606 2261.1 12.4606C2260.27 11.5606 2259.44 10.7606 2257.66 11.4606C2248.06 7.46062 2242.61 10.1606 2235.85 13.4606C2233.24 14.7606 2230.52 16.0606 2227.2 17.1606C2223.88 17.4606 2220.21 17.7606 2216.65 18.0606H2216.53C2207.17 18.8606 2197.21 19.6606 2188.44 20.6606C2187.38 20.6606 2186.19 20.4606 2185.01 20.3606C2181.45 19.9606 2177.78 19.5606 2174.81 21.4606C2173.75 21.4606 2172.44 20.6606 2171.26 19.7606C2169.24 18.4606 2167.23 17.0606 2165.93 18.7606C2159.29 14.3606 2155.26 14.7606 2149.21 15.4606C2148.39 15.5606 2147.56 15.6606 2146.73 15.7606C2145.54 15.9606 2144.36 16.2606 2143.29 16.5606C2139.97 17.4606 2136.77 18.2606 2133.21 15.9606C2132.39 15.4606 2131.67 14.8606 2130.96 14.3606C2128.71 12.6606 2126.93 11.3606 2124.21 14.1606C2117.81 12.3606 2111.17 12.6606 2105.36 15.8606C2102.16 17.6606 2098.37 17.4606 2094.81 17.2606C2092.68 17.1606 2090.67 17.0606 2088.77 17.3606C2084.62 21.0606 2081.19 19.1606 2077.16 16.9606C2074.9 15.6606 2072.41 14.3606 2069.57 13.8606C2068.98 13.7606 2068.39 13.6606 2067.79 13.4606C2064.83 12.7606 2061.51 11.9606 2059.14 14.5606C2055.47 13.0606 2053.1 14.6606 2050.49 16.4606C2048.59 17.7606 2046.7 19.0606 2043.97 19.5606C2041.48 20.0606 2039.11 20.2606 2036.86 20.3606C2032.47 20.7606 2028.33 21.0606 2024.53 23.2606C2023.59 23.8606 2022.76 23.9606 2021.81 24.0606C2019.91 24.2606 2018.01 24.5606 2015.64 30.2606C2014.34 32.7606 2011.26 31.9606 2008.89 31.2606C2007.94 31.0606 2007.23 30.7606 2006.64 30.7606C1999.76 36.9606 1991.94 36.2606 1984.24 35.6606C1979.97 35.2606 1975.82 34.9606 1971.79 35.6606C1972.74 41.5606 1972.74 42.8606 1971.67 38.3606C1968.12 39.2606 1964.44 38.8606 1960.65 38.4606C1955.08 37.8606 1949.63 37.1606 1944.65 40.9606C1942.04 43.7606 1937.9 44.2606 1934.81 41.6606C1933.27 41.9606 1931.85 43.2606 1930.55 44.5606C1928.41 46.5606 1926.4 48.4606 1923.79 46.5606C1921.9 50.6606 1920.24 50.5606 1918.7 50.3606C1917.63 50.2606 1916.68 50.1606 1915.5 51.0606C1906.61 53.7606 1897.36 52.3606 1888.36 51.0606C1884.8 50.5606 1881.24 50.0606 1877.81 49.7606C1874.96 48.2606 1872.59 49.4606 1870.34 50.5606C1867.5 51.9606 1864.65 53.3606 1860.86 49.6606C1856.36 45.3606 1853.16 45.4606 1849.36 45.5606H1849.24C1848.89 45.5606 1848.65 45.5606 1848.3 45.5606C1848.18 45.5606 1848.06 45.5606 1847.94 45.5606C1842.96 50.1606 1836.8 48.8606 1831.23 46.2606C1825.07 47.3606 1819.14 46.6606 1811.67 38.7606C1805.39 37.4606 1798.16 36.2606 1790.81 35.1606C1783.7 34.0606 1776.59 32.8606 1769.84 31.5606C1769.24 31.2606 1768.53 31.0606 1767.82 30.7606C1759.29 27.3606 1750.87 23.9606 1742.7 27.5606C1741.16 28.0606 1739.73 29.5606 1738.31 31.1606C1735.59 34.1606 1732.86 37.0606 1729.66 32.5606C1725.99 33.7606 1723.38 35.0606 1720.65 36.3606C1718.04 37.6606 1715.44 38.9606 1711.41 40.4606H1710.46C1705.72 40.2606 1701.21 40.0606 1697.19 44.9606C1690.07 48.8606 1682.13 48.8606 1674.31 48.9606C1669.57 48.9606 1664.71 48.9606 1660.09 49.8606C1649.9 45.9606 1635.32 46.7606 1627.61 53.3606C1621.93 53.8606 1617.19 57.1606 1612.21 60.6606C1607.7 63.8606 1602.96 67.1606 1597.04 68.6606C1593.01 68.2606 1588.62 68.8606 1584.36 69.3606C1581.87 69.6606 1579.38 70.0606 1577.01 70.1606C1573.33 79.0606 1569.07 76.8606 1563.38 73.0606C1558.64 72.9606 1554.01 73.9606 1549.39 74.8606C1542.76 76.2606 1536 77.6606 1529.01 75.8606C1528.65 76.2606 1527.35 75.9606 1525.93 75.7606C1523.79 75.3606 1521.3 74.7606 1520.71 76.4606C1519.88 79.9606 1519.17 79.7606 1518.34 79.4606C1517.75 79.2606 1517.16 79.1606 1516.44 80.0606C1510.76 81.1606 1500.92 82.9606 1494.16 82.5606C1486.46 83.3606 1478.76 86.1606 1471.17 88.8606C1465.01 91.0606 1458.73 93.2606 1452.68 94.3606C1448.41 92.5606 1445.45 94.3606 1442.37 96.2606C1439.64 97.8606 1436.92 99.5606 1433.24 99.0606C1427.91 98.5606 1422.93 98.7606 1417.96 98.8606C1412.74 99.0606 1407.64 99.1606 1402.19 98.5606C1392.47 93.0606 1384.77 94.3606 1376.95 101.661C1373.87 101.361 1370.79 102.161 1367.7 103.061C1363.44 104.261 1359.17 105.461 1354.67 103.561C1351.35 104.161 1347.79 103.861 1344.24 103.461C1340.21 103.161 1336.18 102.761 1332.5 103.661C1329.07 107.161 1324.33 105.061 1320.18 103.261C1318.76 103.861 1317.57 104.361 1316.5 104.761C1313.66 105.861 1311.64 106.561 1308.44 109.661C1303.94 107.861 1293.75 104.361 1290.07 111.061C1286.16 114.061 1282.01 112.561 1277.75 110.961C1274.67 109.761 1271.47 108.661 1268.27 109.261C1268.03 109.261 1267.79 109.161 1267.56 109.161C1264.47 107.461 1262.46 107.661 1260.8 108.761C1251.91 108.561 1242.9 109.961 1234.37 111.961C1229.75 110.761 1225.48 111.761 1221.21 112.861C1217.3 113.861 1213.51 114.761 1209.36 114.061C1201.54 106.861 1195.02 110.361 1188.39 113.961C1186.96 114.761 1185.42 115.561 1183.88 116.261C1174.28 107.661 1165.04 102.161 1158.4 118.361C1150.46 121.961 1141.1 125.961 1132.33 120.261C1129.01 116.361 1126.99 118.361 1124.98 120.461C1122.73 122.761 1120.47 125.061 1116.21 118.561C1112.65 118.261 1109.33 118.761 1105.9 119.361C1102.93 119.861 1099.97 120.361 1096.89 120.261C1090.61 122.161 1084.21 122.261 1077.69 122.261C1073.54 122.261 1069.39 122.361 1065.36 122.861C1059.91 122.461 1054.22 122.961 1049.13 124.561C1046.28 124.161 1044.27 125.361 1042.37 126.461C1039.53 128.061 1036.92 129.561 1032.53 125.261C1029.33 126.261 1026.61 125.161 1023.29 123.861C1021.27 123.061 1019.14 122.161 1016.53 121.661C1012.27 127.161 1008.36 127.361 1003.14 124.461C995.437 123.961 988.326 124.861 981.215 129.661C978.133 127.661 976.356 130.861 974.815 133.761C973.274 136.661 971.733 139.361 969.244 136.261C967.941 134.361 966.4 135.261 964.859 139.561C963.793 135.361 963.081 134.561 963.081 139.361C961.541 139.961 960.119 140.961 958.696 142.061C956.919 143.461 955.022 144.761 953.007 145.161C945.896 149.561 937.482 150.961 928.83 151.161C925.985 151.361 923.022 150.761 920.059 150.261C914.133 149.161 908.207 148.061 903.348 153.061C901.096 152.561 897.896 153.561 894.578 154.561C889.956 155.961 885.096 157.461 882.015 155.061C879.052 154.261 878.104 154.161 875.615 160.461C875.141 160.661 874.311 160.261 873.244 159.861C871.23 158.961 868.622 157.861 868.03 160.961C864.474 159.761 861.274 161.861 858.074 164.061C853.807 166.961 849.541 169.861 844.444 164.161C840.77 165.061 837.452 167.961 834.133 170.761C828.444 175.661 822.637 180.561 814.933 175.661C806.163 180.361 796.326 182.361 786.37 177.861C780.207 179.961 773.926 180.461 767.407 179.461C762.074 171.461 758.044 174.661 754.489 180.861C754.37 181.861 754.252 182.761 754.133 183.561C753.659 187.361 753.541 187.761 751.763 184.661C750.222 184.461 748.326 184.861 746.193 185.361C742.637 186.061 738.726 186.861 735.407 185.261C721.778 184.661 709.333 182.761 695.467 180.561C691.556 180.361 688.119 180.561 684.682 180.761C679.941 181.061 675.319 181.261 670.104 180.561C663.111 181.161 655.289 181.561 647.111 180.561C644.148 181.661 640.83 180.761 637.63 179.861C632.652 178.461 627.793 177.161 624.118 183.161C620.326 180.961 617.244 183.061 614.163 185.061C610.844 187.261 607.526 189.461 603.259 186.561C600.178 186.961 597.096 186.561 594.133 186.161C589.985 185.661 585.956 185.161 582.044 186.661C581.333 186.161 580.741 185.661 580.03 185.161C574.933 181.361 569.956 177.661 566.044 183.561C563.081 182.261 561.185 183.561 559.526 184.861C557.63 186.261 555.852 187.661 552.652 185.761C551.585 185.361 550.519 186.361 549.452 187.261C547.793 188.861 546.015 190.461 543.763 186.361C537.244 188.961 531.2 191.161 523.852 186.261C520.533 184.961 517.096 185.561 514.133 187.161C510.578 189.661 509.393 188.361 508.207 187.161C507.378 186.261 506.548 185.461 504.77 186.161C495.17 182.161 489.719 184.861 482.963 188.161C480.356 189.461 477.63 190.761 474.311 191.861C470.993 192.161 467.437 192.461 463.763 192.761H463.644C454.282 193.561 444.326 194.361 435.556 195.361C434.489 195.361 433.304 195.161 432.119 195.061C428.563 194.661 424.889 194.261 421.926 196.161C420.859 196.161 419.556 195.361 418.252 194.461C416.237 193.161 414.222 191.761 412.919 193.461C406.281 189.061 402.252 189.461 396.207 190.161C395.378 190.261 394.548 190.361 393.719 190.461C392.533 190.661 391.348 190.961 390.163 191.261C386.844 192.161 383.644 192.961 380.089 190.661C379.259 190.161 378.548 189.561 377.837 189.061C375.467 187.361 373.807 186.061 371.081 188.861C364.681 187.061 358.044 187.361 352.237 190.561C349.037 192.361 345.244 192.161 341.689 191.961C339.556 191.861 337.541 191.761 335.644 192.061C331.496 195.761 328.059 193.861 324.03 191.661C321.778 190.361 319.289 189.061 316.444 188.561C315.852 188.461 315.259 188.361 314.667 188.161C311.704 187.461 308.385 186.661 306.015 189.261C302.341 187.761 299.97 189.361 297.363 191.161C295.467 192.461 293.57 193.761 290.844 194.261C288.356 194.761 285.985 194.961 283.733 195.061C279.348 195.461 275.2 195.761 271.407 197.961C270.459 198.561 269.63 198.661 268.681 198.761C266.785 198.961 264.889 199.261 262.519 204.961C261.215 207.461 258.133 206.661 255.763 205.961C254.815 205.761 254.104 205.461 253.511 205.461C246.637 211.661 238.815 210.961 231.111 210.361C226.844 209.961 222.696 209.661 218.667 210.361C219.615 216.261 219.615 217.561 218.548 213.061C214.993 213.961 211.319 213.561 207.526 213.161C201.956 212.561 196.385 211.861 191.526 215.661C188.919 218.461 184.77 218.961 181.689 216.361C180.148 216.661 178.726 217.961 177.422 219.261C175.289 221.261 173.274 223.161 170.667 221.261C168.77 225.361 167.111 225.261 165.57 225.061C164.504 224.961 163.556 224.861 162.37 225.761C153.481 228.461 144.237 227.061 135.23 225.761C131.674 225.261 128.119 224.761 124.681 224.461C121.837 222.961 119.467 224.161 117.215 225.261C114.37 226.661 111.526 228.061 107.733 224.361C103.23 220.061 100.03 220.161 96.237 220.261H96.1185C95.6444 220.261 95.2889 220.261 94.8148 220.261C89.837 224.861 83.6741 223.561 78.1037 220.961C71.9407 222.061 66.0148 221.361 58.5481 213.461C52.2667 212.161 45.037 210.961 37.6889 209.861C30.5778 208.761 23.4667 207.561 16.7111 206.261C16 205.961 15.4074 205.761 14.6963 205.461C9.71852 203.461 4.85926 201.461 0 200.861V1500H2560V4.46062C2553.01 6.26062 2546.25 6.16062 2539.5 3.16062Z" fill="#DAD6CC"/>
</svg>
