<svg width="2160" height="1200" viewBox="0 0 2160 1200" fill="none" xmlns="http://www.w3.org/2000/svg">
<path d="M2157.5 11.0096C2154.5 9.50961 2151.6 8.10961 2148.5 9.10961C2140.6 1.30961 2133.2 4.70961 2125.6 8.20961C2122.9 9.40961 2120.3 10.6096 2117.6 11.4096C2113.6 14.1096 2109.1 13.4096 2104.6 12.6096C2101.8 12.1096 2099.1 11.6096 2096.5 12.0096C2092.5 15.0096 2088.8 14.4096 2085 13.8096C2082.6 13.4096 2080.1 13.0096 2077.6 13.5096C2076.3 13.5096 2074.9 13.7096 2073.4 13.9096C2070.5 14.3096 2067.6 14.7096 2065 13.7096C2060.7 16.4096 2055.5 19.2096 2051.2 18.5096C2046.7 22.7096 2036.1 29.1096 2032.2 22.6096C2026.4 21.5096 2019.3 23.2096 2014.2 28.1096C2011.4 29.8096 2009.1 29.6096 2006.9 29.4096C2005.4 29.3096 2003.9 29.1096 2002.1 29.6096C1999 39.8096 1998.1 38.2096 1995.5 34.0096L1995.2 33.5096L1995 33.1096L1994.8 32.9096C1991.3 30.2096 1987.5 27.3096 1984 34.0096C1981.3 34.8096 1978.8 35.9096 1976.3 37.1096C1971 39.5096 1965.8 41.8096 1959.9 40.1096C1952.3 43.0096 1944.6 44.0096 1936.9 40.2096C1933.3 41.2096 1929.7 40.5096 1926.2 39.8096C1922.1 39.0096 1918 38.2096 1913.9 39.9096C1910.5 39.2096 1905.8 39.5096 1901.3 39.7096C1897.3 39.9096 1893.4 40.1096 1890.4 39.7096C1889.9 39.4096 1889.3 38.5096 1888.8 37.7096C1887.9 36.2096 1887 34.8096 1886.3 37.6096C1885 38.7096 1883.7 38.1096 1882.3 37.4096C1881.7 37.1096 1881 36.8096 1880.3 36.6096C1878.2 34.2096 1875.9 34.1096 1873.8 34.1096C1871.6 34.0096 1869.5 34.0096 1867.8 31.3096C1866.6 31.3096 1865.8 31.7096 1865.1 32.0096C1863.3 32.8096 1862.2 33.2096 1857.4 26.6096C1848.3 28.4096 1838.7 28.9096 1832 23.8096C1827 15.1096 1819.9 10.5096 1812.8 13.2096C1810.3 11.7096 1807.2 13.0096 1804 14.3096C1799.1 16.3096 1794.1 18.3096 1790.8 10.8096C1790.5 9.50961 1790.2 8.30961 1789.9 7.20961C1789 3.40961 1788.5 1.60961 1787.8 1.50961C1787.1 1.40961 1786.2 2.60961 1784.5 4.90961C1784.3 5.20961 1784.1 5.50961 1783.8 5.80961C1776.9 1.10961 1769 -0.890394 1762 5.90961C1758.8 3.10961 1755.7 4.00961 1752.6 4.80961C1749.7 5.60961 1746.7 6.40961 1743.6 4.30961C1737.1 9.70961 1730.6 7.50961 1724.1 5.30961C1723.1 5.00961 1722.1 4.60961 1721.1 4.30961C1720.3 3.90961 1719.5 3.50961 1718.8 3.10961C1713.6 0.409606 1708.4 -2.29039 1703.3 4.30961L1702.8 4.20961C1696.2 3.30961 1685.9 2.00961 1680.5 5.20961C1679.5 6.30961 1678.6 7.90961 1677.7 9.50961C1675.5 13.6096 1673.4 17.6096 1669.5 11.2096C1667.5 16.1096 1663.3 14.8096 1661.8 7.60961C1654.5 9.70961 1648.4 8.50961 1641.4 7.20961C1638.4 6.60961 1635.2 6.00961 1631.8 5.70961C1627.2 2.50961 1622.9 5.80961 1618.6 8.90961C1616.7 10.3096 1614.9 11.7096 1613.1 12.5096L1612.4 13.1096C1606.6 18.3096 1601 23.5096 1595.1 20.4096C1591.3 12.4096 1588.6 16.4096 1585.5 20.8096C1583.3 24.0096 1580.9 27.3096 1578 26.4096C1572.5 29.0096 1567.8 27.6096 1562.8 26.0096C1562 25.8096 1561.2 25.5096 1560.4 25.3096C1549.4 23.3096 1537.6 25.3096 1526.6 27.1096C1525.5 27.3096 1524.5 27.5096 1523.4 27.6096C1522.5 31.4096 1521 29.8096 1519.6 28.2096C1518.3 26.8096 1517.1 25.4096 1516.2 28.0096C1514.9 28.3096 1514.2 27.4096 1513.4 26.5096C1512.8 25.8096 1512.1 25.0096 1511.1 24.7096C1510.4 24.6096 1509.6 24.4096 1508.6 24.2096C1505 23.4096 1499.9 22.2096 1497.1 24.9096C1496.5 24.4096 1495.9 23.7096 1495.2 23.0096C1492.8 20.4096 1490.4 17.7096 1488.1 24.9096C1484.9 19.0096 1483 20.0096 1480.7 21.2096C1479.8 21.7096 1478.8 22.2096 1477.6 22.3096C1476.7 21.5096 1476 20.7096 1475.4 20.1096C1474 18.5096 1473.2 17.5096 1471.4 19.8096C1469.6 21.3096 1468.1 19.7096 1466 16.9096C1465.4 17.8096 1464.5 16.6096 1463.6 15.3096C1462.2 13.4096 1460.6 11.3096 1459.4 14.4096C1458 15.3096 1456.5 15.6096 1455.1 15.8096C1453.3 16.1096 1451.4 16.4096 1449.7 18.1096C1446.2 20.6096 1443.1 18.8096 1440 17.0096C1436.4 14.9096 1432.9 12.9096 1428.9 17.5096C1425.2 16.3096 1421.5 17.1096 1417.8 17.8096C1413.5 18.7096 1409.3 19.6096 1405 17.5096L1404.2 17.7096C1400.1 18.8096 1395.7 19.9096 1391.7 17.4096C1384.3 17.4096 1375.8 18.5096 1370.2 26.0096C1367.3 26.0096 1364.4 29.1096 1361.5 32.2096C1358.3 35.6096 1355.1 39.0096 1352 38.3096C1349 40.1096 1346.4 40.4096 1343.7 40.6096C1340 40.9096 1336.1 41.2096 1330.7 45.7096C1329.4 46.2096 1328.2 45.7096 1326.9 45.2096C1325.2 44.5096 1323.5 43.8096 1321.8 45.7096C1315.1 50.6096 1307.3 52.9096 1300.8 48.9096C1299.1 47.6096 1298.3 47.2096 1297.9 46.9096C1297.7 46.8096 1297.6 46.7096 1297.5 46.6096C1297.1 46.3096 1296.8 45.9096 1295.7 44.4096L1295.6 44.3096C1294.7 44.4096 1293.5 42.5096 1292.1 40.4096C1289.7 36.7096 1286.9 32.3096 1284.8 38.1096C1281.6 34.7096 1278.5 34.9096 1275.1 35.2096C1273.5 35.3096 1271.8 35.5096 1270 35.2096C1268.7 34.8096 1267.2 35.5096 1265.7 36.2096C1263.3 37.3096 1260.9 38.4096 1258.9 35.5096C1250.3 35.1096 1243.6 34.6096 1234.7 27.6096C1234.4 26.6096 1234 26.5096 1233.3 26.5096C1232.2 26.4096 1230.3 26.2096 1226.9 20.5096C1224.9 19.0096 1222.1 19.6096 1219.7 20.2096C1218.3 20.5096 1216.9 20.8096 1215.9 20.7096C1213.9 20.2096 1213.9 20.1096 1213.8 18.2096C1213.8 17.7096 1213.8 17.1096 1213.7 16.3096C1210 18.4096 1201.7 19.5096 1197.5 16.0096C1197.2 15.7096 1196.9 15.3096 1196.7 15.0096C1192.7 10.2096 1188.5 5.20961 1184.6 17.5096C1183.2 17.6096 1182.1 18.6096 1181.2 19.5096C1179.9 20.7096 1178.7 21.8096 1176.9 20.3096C1175.9 21.3096 1174.9 22.4096 1173.9 23.6096C1170 28.2096 1166.3 32.5096 1162.4 22.1096C1161.4 20.7096 1161.2 21.5096 1160.9 22.5096C1160.6 23.7096 1160.1 25.2096 1158.1 23.6096C1157 24.0096 1156 22.6096 1154.9 21.2096C1153.3 19.0096 1151.7 17.0096 1150.2 22.5096C1146.2 13.5096 1145.4 12.4096 1140.1 18.9096C1139.1 18.6096 1138.1 20.1096 1137.1 21.5096C1135.2 24.1096 1133.4 26.8096 1131.6 19.0096C1128.5 22.8096 1125.3 21.0096 1122.2 19.3096C1120.5 18.4096 1118.9 17.5096 1117.4 17.6096C1116.4 19.7096 1115.6 17.8096 1114.8 15.8096C1114 13.8096 1113.2 11.8096 1112 13.3096C1110.7 15.3096 1108.9 14.5096 1107.3 13.7096C1106.5 13.3096 1105.7 12.9096 1105 13.0096C1103 12.2096 1101.2 13.6096 1099.4 15.0096C1098.6 15.6096 1097.9 16.2096 1097.1 16.6096C1093.9 13.9096 1082.9 11.5096 1080.4 14.4096C1077.6 15.9096 1074.6 15.6096 1071.8 14.5096C1070.1 14.4096 1068.4 14.3096 1066.7 14.2096C1057.2 13.6096 1047.7 13.1096 1038.2 14.5096C1035 13.5096 1031.7 14.1096 1028.5 14.6096C1025.1 15.2096 1021.6 15.8096 1018.2 14.5096C1014.7 15.2096 1012.6 17.0096 1010.8 18.5096C1008.9 20.2096 1007.4 21.4096 1004.9 20.2096C1002.9 19.7096 998.7 19.6096 995.8 26.2096C995 26.4096 994 26.8096 992.9 27.2096C988.5 28.9096 982.8 31.1096 979 26.4096C975.7 26.6096 972.3 25.5096 968.8 24.5096C961.6 22.3096 954.5 20.0096 948.9 29.3096C945.2 28.6096 942.4 30.7096 939.1 33.1096C936.5 35.0096 933.6 37.2096 929.8 38.2096C925.7 39.9096 921.6 40.5096 917.5 38.2096C910.7 35.4096 900.9 37.2096 894 38.4096L893.7 38.5096C890.9 44.5096 889.4 43.6096 887.5 42.3096C886.3 41.5096 884.9 40.5096 882.8 41.3096C876.5 43.0096 870.3 43.0096 864 41.3096C858.7 40.1096 853.4 40.5096 848.1 41.0096C844.3 41.3096 840.5 41.6096 836.7 41.3096C834.8 41.5096 833 41.8096 831.2 42.2096C825.8 43.2096 820.7 44.2096 815 40.0096C810.6 40.2096 806.1 40.3096 801.7 39.9096C800.6 37.7096 798.5 38.7096 796.5 39.5096C794.8 40.2096 793.3 40.9096 792.6 39.6096C792 42.9096 791.8 41.6096 791.2 37.8096V37.6096C789.9 39.5096 788.7 38.0096 787.4 36.5096C786.1 35.0096 784.8 33.5096 783.2 34.6096C782.1 34.4096 781 35.1096 779.9 35.8096C777.9 37.1096 776 38.4096 774 33.8096C771.6 33.0096 771.2 33.2096 771 33.3096C770.8 33.4096 770.8 33.4096 769.5 32.4096C767.2 33.3096 765.2 32.3096 763.1 31.2096C761.4 30.3096 759.6 29.4096 757.5 29.3096C754.6 28.8096 751.9 28.8096 749.4 28.7096C745.3 28.6096 741.5 28.5096 737.1 26.8096C734.1 21.6096 731.9 22.6096 729.3 23.7096C727.9 24.3096 726.5 25.0096 724.7 24.8096C720.3 25.4096 715.7 24.8096 711.2 24.3096C709 24.0096 706.8 23.7096 704.6 23.6096C700.7 21.3096 697.8 20.3096 694.9 19.4096L694.3 19.2096C692.2 18.9096 691.1 18.0096 689.5 16.7096C688.3 15.7096 686.8 14.5096 684.3 13.1096C681.8 13.0096 679.5 11.8096 677.3 10.7096C674.3 9.20961 671.4 7.80961 668.3 8.80961C660.4 1.00961 653 4.40961 645.4 7.90961C642.8 9.10961 640.1 10.3096 637.4 11.1096C633.4 13.8096 628.9 13.1096 624.4 12.3096C621.6 11.8096 618.9 11.3096 616.3 11.7096C612.3 14.7096 608.6 14.1096 604.8 13.5096C602.4 13.1096 599.9 12.7096 597.4 13.2096C596.1 13.2096 594.7 13.4096 593.3 13.6096C590.4 14.0096 587.5 14.4096 584.9 13.4096C580.6 16.1096 575.4 18.9096 571.1 18.2096C566.6 22.4096 556 28.8096 552.1 22.3096C546.3 21.2096 539.2 22.9096 534.1 27.8096C531.3 29.5096 529 29.3096 526.8 29.1096C525.3 29.0096 523.8 28.8096 522 29.3096C518.9 39.5096 518 37.9096 515.4 33.7096C515.2 33.4096 515.1 33.1096 514.9 32.9096L514.7 32.7096C511.2 30.0096 507.4 27.1096 503.9 33.8096C501.2 34.6096 498.7 35.7096 496.2 36.9096C490.9 39.3096 485.7 41.6096 479.8 39.9096C472.2 42.8096 464.5 43.8096 456.8 40.0096C453.2 41.0096 449.6 40.3096 446.1 39.6096C442 38.8096 437.9 38.0096 433.8 39.7096C430.4 39.0096 425.8 39.3096 421.2 39.5096C417.2 39.7096 413.3 39.9096 410.3 39.5096C409.7 39.2096 409.2 38.3096 408.7 37.5096C407.8 36.0096 406.9 34.6096 406.2 37.4096C404.9 38.5096 403.6 37.9096 402.2 37.2096C401.6 36.9096 400.9 36.6096 400.2 36.4096C398.1 34.0096 395.8 33.9096 393.7 33.9096C391.5 33.8096 389.3 33.8096 387.7 31.1096C386.5 31.1096 385.7 31.5096 385 31.8096C383.2 32.6096 382.1 33.0096 377.3 26.4096C368.2 28.2096 358.6 28.7096 351.9 23.6096C347 14.9096 339.8 10.3096 332.7 13.0096C330.2 11.5096 327.1 12.8096 323.9 14.1096C319 16.1096 314 18.1096 310.7 10.6096C310.4 9.30961 310.1 8.10961 309.8 7.00961C308.9 3.20961 308.4 1.40961 307.7 1.30961C307 1.20961 306.1 2.40961 304.4 4.70961C304.2 5.00961 304 5.30961 303.7 5.60961C296.8 0.909606 288.9 -1.09039 281.9 5.70961C278.7 2.90961 275.6 3.80961 272.4 4.60961C269.5 5.40961 266.5 6.20961 263.4 4.10961C256.9 9.50961 250.4 7.30961 243.9 5.10961C242.9 4.80961 241.9 4.40961 240.9 4.10961C240.1 3.70961 239.3 3.30961 238.5 2.90961C233.3 0.209606 228.2 -2.49039 223 4.10961L222.8 4.40961C216.3 3.50961 205.9 2.20961 200.5 5.40961C199.5 6.50961 198.6 8.10961 197.7 9.70961C195.5 13.8096 193.4 17.8096 189.5 11.4096C187.5 16.3096 183.3 15.0096 181.8 7.80961C174.5 9.90961 168.4 8.70961 161.4 7.40961C158.4 6.80961 155.2 6.20961 151.8 5.90961C147.2 2.70961 142.9 6.00961 138.6 9.10961C136.7 10.5096 134.9 11.9096 133.1 12.7096L132.4 13.3096C126.6 18.5096 121 23.7096 115.1 20.6096C111.3 12.6096 108.6 16.6096 105.5 21.0096C103.3 24.2096 100.9 27.5096 98 26.6096C92.5 29.2096 87.8 27.8096 82.8 26.2096C82 26.0096 81.2 25.7096 80.4 25.5096C69.4 23.5096 57.6 25.5096 46.6 27.3096C45.5 27.5096 44.5 27.7096 43.4 27.8096C42.5 31.6096 41 30.0096 39.6 28.4096C38.3 27.0096 37.1 25.6096 36.2 28.2096C34.9 28.5096 34.2 27.6096 33.4 26.7096C32.8 26.0096 32.1 25.2096 31.1 24.9096C30.4 24.8096 29.6 24.6096 28.6 24.4096C25 23.6096 19.9 22.4096 17.1 25.1096C16.5 24.6096 15.8 23.9096 15.2 23.2096C12.8 20.6096 10.4 17.9096 8.1 25.1096C5 19.3096 3 20.3096 0.7 21.5096C0.5 21.6096 0.2 21.7096 0 21.9096V64.4096V1200H2160V64.4096V12.2096C2159.2 11.8096 2158.3 11.4096 2157.5 11.0096Z" fill="#F6F6F6"/>
</svg>
