<svg width="2160" height="1009" viewBox="0 0 2160 1009" fill="none" xmlns="http://www.w3.org/2000/svg">
    <rect width="2160" height="764" transform="matrix(-1 0 0 1 2160 245)" fill="#FF5F00" />
    <path
        d="M2160 201.859V245.194H0V4.51173C5.39404 6.28899 11.0833 6.23061 16.792 3.16418C21.97 5.24105 27.3376 5.74049 32.8196 4.75613C37.3359 -3.23696 40.7078 -0.0432172 43.7461 6.17432C43.8105 6.6712 43.8679 7.13719 43.9197 7.57188C43.9485 7.81266 43.9756 8.04384 44.0015 8.26535L44.0593 8.76462L44.0674 8.83487V8.83664C44.5017 12.6025 44.5564 13.0767 46.0293 9.95693C47.3198 9.7887 48.9458 10.1878 50.7041 10.6194L50.71 10.6208L50.7136 10.6216C53.6775 11.3491 57.0176 12.1688 59.7656 10.524C71.2534 9.9701 81.7861 7.99141 93.4707 5.79502C96.7419 5.63484 99.6716 5.83419 102.532 6.02876L102.543 6.02958C106.541 6.30164 110.402 6.56439 114.871 5.82704C120.729 6.40891 127.403 6.80632 134.244 5.85666C136.785 6.93097 139.538 6.02511 142.255 5.13113C146.461 3.74633 150.582 2.38976 153.695 8.45359C156.897 6.28272 159.502 8.33581 162.125 10.403C164.931 12.6142 167.759 14.8423 171.362 11.937C173.971 12.3218 176.516 11.9402 179.02 11.5647L179.026 11.5639C182.494 11.0436 185.885 10.5354 189.261 12.0857C189.819 11.6076 190.376 11.1122 190.93 10.619L190.931 10.6183C195.247 6.77708 199.404 3.07691 202.762 9.00685C205.289 7.71177 206.814 9.04772 208.308 10.3559C209.897 11.7474 211.452 13.1083 214.14 11.2335C215.075 10.8464 215.932 11.7872 216.804 12.7442C218.224 14.3038 219.684 15.9067 221.587 11.8738C227.108 14.5157 232.144 16.6779 238.347 11.777C241.17 10.4619 244.034 11.0784 246.529 12.722C249.522 15.1778 250.531 13.9431 251.493 12.7654C252.22 11.8751 252.921 11.0183 254.43 11.8118C262.58 7.84322 267.158 10.4934 272.845 13.7855C275.028 15.0504 277.376 16.4097 280.152 17.5246C283 17.8165 286.006 18.1087 289.085 18.408L289.193 18.4186C297.108 19.1875 305.497 20.0026 312.911 20.9774C313.835 20.9437 314.815 20.8163 315.817 20.6861L315.822 20.6854C318.795 20.2984 321.959 19.8877 324.426 21.8219C325.319 21.8712 326.392 21.0004 327.483 20.115C329.139 18.7703 330.836 17.3927 332.003 19.1518C337.574 14.7207 341.031 15.175 346.122 15.8442C346.802 15.934 347.511 16.0274 348.258 16.1132C349.276 16.2983 350.251 16.5992 351.208 16.8943L351.228 16.9005C354.039 17.769 356.681 18.5855 359.707 16.2861C360.415 15.7904 361.043 15.2336 361.628 14.7157L361.632 14.7126C363.584 12.9831 365.044 11.6904 367.292 14.5472C372.654 12.7537 378.308 13.049 383.24 16.2645C385.971 18.054 389.112 17.8777 392.17 17.7055L392.174 17.7053C393.935 17.6067 395.668 17.5097 397.28 17.7913C400.792 21.5374 403.716 19.611 407.121 17.3674C409.047 16.098 411.127 14.7272 413.554 14.2236C414.044 14.1203 414.563 13.9774 415.098 13.83L415.117 13.8248L415.118 13.8244C417.617 13.134 420.468 12.3462 422.42 14.971C425.511 13.4479 427.482 15.0532 429.692 16.8538L429.694 16.855C431.256 18.128 432.938 19.4985 435.221 19.9315C437.324 20.4001 439.331 20.5904 441.256 20.7726C444.987 21.126 448.412 21.4505 451.629 23.7214C452.426 24.3381 453.17 24.4482 453.906 24.5566C455.535 24.7973 457.121 25.0313 459.14 30.7489C460.267 33.28 462.822 32.4314 464.836 31.7626L464.843 31.7603C465.593 31.5113 466.268 31.2874 466.765 31.2737C472.558 37.5117 479.137 36.8236 485.632 36.1445C489.201 35.7708 492.746 35.4004 496.123 36.1837C495.337 42.088 495.341 43.3847 496.25 38.922C499.213 39.8591 502.355 39.4257 505.509 38.9901C510.174 38.3454 514.862 37.6981 519.027 41.4836C521.208 44.2919 524.713 44.8069 527.304 42.1389C528.627 42.4528 529.787 43.745 530.928 45.0165L530.929 45.0175C532.7 46.9916 534.428 48.9163 536.653 47.0557C538.281 51.1387 539.615 51.007 540.994 50.871L540.995 50.8709C541.847 50.7862 542.715 50.7007 543.679 51.6094C551.228 54.2948 558.936 52.9572 566.587 51.6295L566.588 51.6293C569.576 51.1107 572.556 50.5937 575.514 50.3179C577.914 48.8614 579.878 50.0157 581.821 51.1573C584.258 52.5896 586.662 54.002 589.849 50.2129C593.617 45.8781 596.303 45.9788 599.52 46.0994L599.58 46.1017L599.582 46.1017C599.837 46.1112 600.095 46.1209 600.358 46.1281C600.457 46.1308 600.557 46.1332 600.657 46.135C604.849 50.7723 610.031 49.4589 614.716 46.7999C619.962 47.8528 624.875 47.2443 631.247 39.3024C636.594 37.9881 642.647 36.8468 648.831 35.6814C654.782 34.5596 660.854 33.4151 666.53 32.0719C667.085 31.8105 667.639 31.5466 668.193 31.2827C675.428 27.8348 682.53 24.4517 689.389 28.1274C690.648 28.5837 691.857 30.13 693.07 31.6806C695.38 34.635 697.702 37.6027 700.397 33.0758C703.494 34.2783 705.659 35.5481 707.98 36.9098L707.989 36.9148L707.997 36.9196L707.999 36.921C710.158 38.1876 712.454 39.5351 715.764 40.9831L716.566 40.9403C720.52 40.7215 724.32 40.5112 727.788 45.4012C733.807 49.3055 740.454 49.3399 747.105 49.3742L747.117 49.3743C751.159 49.3955 755.202 49.4166 759.107 50.3072C767.674 46.3717 779.989 47.1962 786.545 53.7969C791.402 54.3138 795.367 57.6207 799.54 61.1011C803.362 64.2895 807.36 67.6235 812.379 69.0919C815.82 68.7074 819.477 69.2773 823.026 69.8303L823.031 69.831L823.05 69.8339L823.052 69.8343C825.179 70.166 827.266 70.4914 829.245 70.6003C832.348 79.517 835.99 77.3191 840.722 73.5018C844.721 73.4242 848.612 74.3784 852.502 75.3323L852.51 75.3342L852.511 75.3346C858.142 76.7157 863.77 78.0964 869.72 76.3491C870.048 76.7497 871.091 76.4988 872.274 76.2139L872.276 76.2133C874.086 75.7774 876.225 75.2625 876.647 76.8711C877.374 80.3331 877.957 80.1263 878.649 79.8819C879.116 79.7162 879.634 79.5334 880.28 80.4556C885.056 81.5613 893.389 83.3195 899.105 82.9905C905.602 83.8363 912.063 86.5593 918.473 89.2608C923.717 91.4708 928.926 93.6658 934.092 94.8069C937.671 93.0145 940.199 94.8094 942.831 96.6785L942.833 96.6798C945.087 98.2802 947.417 99.9343 950.549 99.4326C955.103 98.929 959.283 99.091 963.428 99.2521C967.787 99.4219 972.107 99.5896 976.783 98.9807C984.941 93.4765 991.52 94.8278 998.107 102.129C1000.7 101.816 1003.28 102.655 1005.87 103.502L1005.87 103.502C1009.47 104.675 1013.11 105.859 1016.87 103.993C1019.68 104.552 1022.66 104.245 1025.63 103.936C1029.01 103.588 1032.39 103.239 1035.53 104.151C1038.44 107.626 1042.39 105.57 1045.93 103.731L1045.93 103.729L1045.94 103.723C1047.15 104.368 1048.16 104.823 1049.07 105.232C1051.44 106.299 1053.13 107.059 1055.88 110.094C1059.72 108.249 1068.26 104.843 1071.42 111.538C1074.72 114.577 1078.23 113.028 1081.82 111.448C1084.45 110.288 1087.12 109.112 1089.77 109.718C1089.97 109.687 1090.17 109.658 1090.37 109.63C1092.96 107.977 1094.69 108.123 1096.07 109.181C1103.58 109.014 1111.16 110.424 1118.41 112.407C1122.28 111.182 1125.9 112.243 1129.53 113.304C1132.8 114.26 1136.07 115.216 1139.51 114.502C1146.1 107.305 1151.65 110.836 1157.18 114.358L1157.18 114.359L1157.2 114.368L1157.2 114.369C1158.45 115.166 1159.7 115.963 1160.97 116.634C1169.03 108.03 1176.82 102.522 1182.42 118.765C1189.12 122.321 1197.02 126.397 1204.44 120.652C1207.28 116.739 1208.96 118.776 1210.63 120.806C1212.54 123.119 1214.44 125.421 1218.04 118.912C1221 118.585 1223.88 119.132 1226.75 119.679C1229.26 120.155 1231.76 120.632 1234.33 120.53C1239.59 122.453 1245.06 122.514 1250.52 122.574C1254.01 122.612 1257.49 122.65 1260.92 123.172C1265.51 122.764 1270.29 123.238 1274.61 124.897C1277.01 124.525 1278.73 125.701 1280.34 126.796C1282.75 128.444 1284.9 129.907 1288.66 125.628C1291.37 126.635 1293.7 125.533 1296.43 124.244L1296.44 124.241C1298.14 123.44 1299.99 122.568 1302.17 122.085C1305.78 127.561 1309.12 127.76 1313.46 124.933C1319.96 124.383 1325.94 125.343 1331.95 130.127C1334.57 128.105 1336.05 131.314 1337.4 134.251C1338.75 137.172 1339.97 139.821 1342.06 136.781C1343.17 134.931 1344.42 135.753 1345.79 140.043C1346.67 135.811 1347.25 135.037 1347.24 139.821C1348.51 140.372 1349.71 141.441 1350.92 142.515L1350.92 142.518C1352.45 143.886 1353.99 145.263 1355.71 145.582C1361.75 150.003 1368.79 151.401 1376.08 151.626C1378.48 151.81 1380.96 151.25 1383.43 150.693L1383.44 150.692C1388.44 149.562 1393.4 148.443 1397.53 153.524C1399.47 153.027 1402.13 153.999 1404.9 155.009L1404.9 155.01C1408.8 156.434 1412.9 157.932 1415.48 155.507C1418.01 154.728 1418.73 154.566 1420.89 160.929C1421.28 161.121 1422.02 160.735 1422.86 160.294C1424.57 159.394 1426.71 158.272 1427.22 161.426C1430.25 160.203 1432.93 162.353 1435.6 164.487C1439.21 167.382 1442.8 170.247 1447.14 164.634C1450.28 165.567 1453.08 168.411 1455.88 171.253C1460.71 176.162 1465.54 181.066 1472.09 176.118C1479.5 180.842 1487.81 182.798 1496.17 178.31C1501.34 180.387 1506.71 180.886 1512.19 179.902C1516.71 171.909 1520.08 175.103 1523.12 181.32C1523.25 182.338 1523.35 183.226 1523.44 183.981L1523.44 183.983C1523.88 187.749 1523.93 188.223 1525.4 185.103C1526.69 184.935 1528.32 185.334 1530.08 185.765L1530.09 185.768C1533.05 186.495 1536.39 187.315 1539.14 185.67C1550.63 185.116 1561.16 183.137 1572.85 180.941C1576.12 180.781 1579.05 180.98 1581.91 181.175L1581.92 181.176C1585.92 181.448 1589.78 181.71 1594.25 180.973C1600.1 181.555 1606.78 181.952 1613.62 181.003C1616.16 182.077 1618.91 181.171 1621.63 180.277C1625.84 178.892 1629.96 177.536 1633.07 183.6C1636.27 181.429 1638.88 183.482 1641.5 185.549C1644.31 187.76 1647.13 189.988 1650.74 187.083C1653.35 187.468 1655.89 187.086 1658.39 186.711L1658.4 186.71C1661.87 186.19 1665.26 185.681 1668.64 187.232C1669.19 186.754 1669.75 186.258 1670.3 185.765C1674.62 181.924 1678.78 178.223 1682.14 184.153C1684.66 182.858 1686.19 184.193 1687.68 185.501L1687.68 185.502C1689.27 186.894 1690.83 188.254 1693.51 186.379C1694.45 185.992 1695.31 186.933 1696.18 187.89L1696.18 187.891C1697.6 189.45 1699.06 191.053 1700.96 187.02C1706.48 189.662 1711.52 191.824 1717.72 186.923C1720.54 185.608 1723.41 186.224 1725.9 187.868C1728.9 190.324 1729.91 189.089 1730.87 187.911C1731.59 187.021 1732.3 186.164 1733.8 186.958C1741.95 182.989 1746.53 185.639 1752.22 188.932C1754.4 190.196 1756.75 191.556 1759.53 192.671C1762.37 192.962 1765.36 193.253 1768.44 193.552L1768.44 193.552L1768.57 193.565C1776.48 194.333 1784.87 195.149 1792.29 196.123C1793.21 196.09 1794.19 195.962 1795.19 195.832L1795.2 195.831C1798.17 195.444 1801.33 195.034 1803.8 196.968C1804.69 197.017 1805.77 196.146 1806.86 195.261C1808.51 193.916 1810.21 192.539 1811.38 194.298C1816.95 189.867 1820.41 190.321 1825.5 190.99C1826.18 191.08 1826.89 191.173 1827.63 191.259C1828.65 191.444 1829.63 191.745 1830.58 192.04L1830.6 192.047C1833.41 192.915 1836.06 193.732 1839.08 191.432C1839.79 190.936 1840.42 190.378 1841 189.86L1841.01 189.859C1842.96 188.13 1844.42 186.836 1846.67 189.693C1852.03 187.9 1857.68 188.195 1862.61 191.41C1865.35 193.2 1868.49 193.024 1871.54 192.851L1871.55 192.851C1873.31 192.753 1875.04 192.656 1876.65 192.937C1880.17 196.683 1883.09 194.757 1886.5 192.514C1888.42 191.244 1890.5 189.873 1892.93 189.37C1893.42 189.266 1893.94 189.124 1894.47 188.976L1894.49 188.971L1894.49 188.97C1896.99 188.28 1899.84 187.492 1901.79 190.117C1904.89 188.594 1906.86 190.199 1909.07 192L1909.07 192.001C1910.63 193.274 1912.31 194.645 1914.6 195.078C1916.7 195.546 1918.71 195.736 1920.63 195.919C1924.36 196.272 1927.79 196.596 1931 198.867C1931.8 199.484 1932.54 199.594 1933.28 199.703C1934.91 199.943 1936.5 200.178 1938.51 205.895C1939.64 208.426 1942.2 207.577 1944.21 206.909L1944.22 206.906C1944.97 206.657 1945.64 206.433 1946.14 206.42C1951.93 212.657 1958.51 211.97 1965.01 211.291C1968.58 210.917 1972.12 210.546 1975.5 211.33C1974.71 217.234 1974.72 218.531 1975.62 214.068C1978.59 215.005 1981.73 214.572 1984.88 214.136C1989.55 213.491 1994.24 212.844 1998.4 216.63C2000.58 219.438 2004.09 219.953 2006.68 217.285C2008 217.599 2009.16 218.891 2010.3 220.162L2010.3 220.164C2012.08 222.138 2013.8 224.062 2016.03 222.202C2017.66 226.285 2018.99 226.153 2020.37 226.017L2020.37 226.017C2021.22 225.932 2022.09 225.847 2023.05 226.755C2030.6 229.441 2038.31 228.103 2045.96 226.776L2045.96 226.775C2048.95 226.257 2051.93 225.74 2054.89 225.464C2057.29 224.008 2059.25 225.161 2061.2 226.303C2063.63 227.735 2066.04 229.148 2069.22 225.359C2072.99 221.024 2075.68 221.125 2078.89 221.245L2078.96 221.248C2079.31 221.261 2079.66 221.274 2080.03 221.281C2084.22 225.918 2089.41 224.605 2094.09 221.946C2099.34 222.999 2104.25 222.39 2110.62 214.448C2115.97 213.134 2122.02 211.993 2128.21 210.827C2134.16 209.706 2140.23 208.561 2145.9 207.218C2146.46 206.957 2147.01 206.693 2147.57 206.429C2151.76 204.429 2155.91 202.451 2160 201.859Z"
        fill="#FF5F00" />
</svg>
